<svg data-v-0dd9719b="" version="1.0" xmlns="http://www.w3.org/2000/svg" xmlns:xlink="http://www.w3.org/1999/xlink" width="100%" height="100%" viewBox="0 0 340.000000 250.000000" preserveAspectRatio="xMidYMid meet" color-interpolation-filters="sRGB" style="margin: auto;"> <rect data-v-0dd9719b="" x="0" y="0" width="100%" height="100%" fill="#fff" fill-opacity="1" class="background"></rect> <rect data-v-0dd9719b="" x="0" y="0" width="100%" height="100%" fill="url(#watermark)" fill-opacity="1" class="watermarklayer"></rect> <g data-v-0dd9719b="" fill="#333" class="icon-text-wrapper icon-svg-group iconsvg" transform="translate(48.61000061035156,94.99489784240723)"><g class="iconsvg-imagesvg" transform="translate(0,0)"><g><rect fill="#333" fill-opacity="0" stroke-width="2" x="0" y="0" width="60" height="60.01020173429483" class="image-rect"></rect> <svg x="0" y="0" width="60" height="60.01020173429483" filtersec="colorsb41051218" class="image-svg-svg primary" style="overflow: visible;"><svg xmlns="http://www.w3.org/2000/svg" viewBox="0 0 59.220001220703125 59.23025131225586"><path d="M43 29.65a13.37 13.37 0 1 1-13.34-13.43A13.41 13.41 0 0 1 43 29.65z" fill="#f18d00"></path><path d="M51.72 21a11 11 0 0 1-2.18 6.81c-.36.49-.58.49-1 0-3.18-3.6-6.47-7.1-9.93-10.45-2.27-2.2-4.56-4.39-7-6.47-.84-.74-.86-.77.09-1.42A10.74 10.74 0 0 1 43 8.63a14.58 14.58 0 0 1 8.48 10.27 7.87 7.87 0 0 1 .24 2.1zM7.49 21.56a12.67 12.67 0 0 1 2.42-7.66 14.58 14.58 0 0 1 8.58-6.08 10.63 10.63 0 0 1 9.25 1.86c.48.36.5.59 0 1-3.6 3.13-7 6.44-10.37 9.83Q14 24 10.71 27.71c-.57.64-.58.66-1.1 0a10.08 10.08 0 0 1-2.12-6.15zM7.5 38.25a10.84 10.84 0 0 1 2.15-6.76c.39-.54.62-.49 1 0 3.58 4.13 7.38 8 11.32 11.82 1.82 1.74 3.69 3.42 5.56 5.12.8.73.82.74-.09 1.37a10.8 10.8 0 0 1-11.27.84 14.73 14.73 0 0 1-8.32-9.74 8.13 8.13 0 0 1-.35-2.65zM51.73 38.07a13 13 0 0 1-3.26 8.35 14.17 14.17 0 0 1-8.53 5.16 10.47 10.47 0 0 1-8.27-1.87c-.8-.57-.8-.61-.08-1.25 3.85-3.4 7.54-7 11.12-10.64 2-2 3.93-4.17 5.83-6.32.55-.62.56-.62 1.05 0a10.43 10.43 0 0 1 2.14 6.57zM29.8 59.23a12.06 12.06 0 0 1-7.52-2.57c-.46-.36-.4-.57 0-.86a79.64 79.64 0 0 0 6.87-5.27.55.55 0 0 1 .84 0 75.44 75.44 0 0 0 7 5.35c.38.26.37.46 0 .74a11.91 11.91 0 0 1-6.13 2.53c-.39.04-.86.06-1.06.08zM29.58 0A12.09 12.09 0 0 1 37 2.6c.41.33.42.52 0 .81a73.94 73.94 0 0 0-7 5.31c-.31.27-.53.23-.83 0a74.45 74.45 0 0 0-6.87-5.27c-.46-.3-.49-.5 0-.85A12.09 12.09 0 0 1 29.58 0zM0 29.62a11.85 11.85 0 0 1 2.54-7.29c.38-.46.59-.44.91.05a67.59 67.59 0 0 0 5.19 6.75.62.62 0 0 1 0 1 73.87 73.87 0 0 0-5.19 6.76c-.34.5-.56.47-.91 0A11.86 11.86 0 0 1 0 29.62zM59.22 29.57A12.21 12.21 0 0 1 56.66 37c-.33.42-.52.48-.85 0a71.27 71.27 0 0 0-5.25-6.87c-.31-.36-.27-.6 0-.95a71.78 71.78 0 0 0 5.23-6.8c.32-.5.53-.41.86 0a11.85 11.85 0 0 1 2.57 7.19zM4.3 41.12c.36.38.66.69 1 1q5.58 6.09 11.66 11.67a8.08 8.08 0 0 1 .6.57c.12.12.38.21.29.42s-.32.09-.49.07a9.93 9.93 0 0 1-4.7-1.85 23.35 23.35 0 0 1-7.33-7.82 10.11 10.11 0 0 1-1.11-3.12 1.38 1.38 0 0 1 .08-.94zM41.23 54.77c.29-.26.59-.51.87-.78 4.2-3.87 8.26-7.88 12.1-12.1a2.76 2.76 0 0 1 .29-.3c.11-.11.2-.31.38-.24s.1.32.08.49a9.77 9.77 0 0 1-1.44 3.94 22.52 22.52 0 0 1-9.06 8.44 7.47 7.47 0 0 1-3.11.77zM17.93 4.29c-.07.36-.31.48-.49.65-4.37 4-8.6 8.2-12.6 12.59-.14.16-.26.48-.52.34s-.06-.37 0-.57a12.06 12.06 0 0 1 3-6 25.68 25.68 0 0 1 5.27-5 12.07 12.07 0 0 1 4.48-2 4.87 4.87 0 0 1 .55-.06 3 3 0 0 1 .31.05zM41.16 4.34a4.25 4.25 0 0 1 2.12.25 15.64 15.64 0 0 1 6.12 3.93 19.08 19.08 0 0 1 5 6.67 8.07 8.07 0 0 1 .58 2.27c0 .15.14.34-.07.43s-.28-.13-.38-.24q-1.62-1.71-3.23-3.43c-2.94-3.14-6.06-6.08-9.2-9z" fill="#094"></path></svg></svg> <!----></g></g> <g transform="translate(67,1.1688518524169922)"><g data-gra="path-name" fill-rule="" class="tp-name iconsvg-namesvg" transform="translate(0,0)"><g transform="scale(1)"><g><path d="M5.27-35.51L5.63-35.86Q10.37-33.57 11.78-31.99L11.78-31.99Q12.83-27.95 9.49-27.77L9.49-27.77Q9.49-27.77 9.14-28.65L9.14-28.65Q8.09-33.05 5.27-35.51L5.27-35.51ZM37.27-32.17L39.55-34.98 43.59-31.46 43.59-31.11 37.27-31.11Q37.62-3.34 37.62 1.05L37.62 1.05Q36.39 3.16 32.52 4.22L32.52 4.22Q32.52 4.22 32.52 4.04L32.52 4.04Q32.17 1.05 26.72 0L26.72 0 26.72-0.7Q34.63 0.53 34.45-0.53L34.45-0.53Q34.8 0.7 34.63-19.16L34.63-19.16Q34.45-26.54 34.45-31.11L34.45-31.11 16.17-31.11 14.41-30.76 13.54-32.17 37.27-32.17ZM14.06-28.48L14.06-28.48 14.77-28.3Q13.89-25.84 12.66-21.45L12.66-21.45Q8.44-8.96 8.61-7.91L8.61-7.91Q8.44-4.57 8.96-0.35L8.96-0.35Q9.14 1.76 9.14 2.46L9.14 2.46Q7.73 4.57 5.45 1.41L5.45 1.41Q5.45 0.53 5.8-1.41L5.8-1.41Q6.68-4.92 5.98-6.68L5.98-6.68Q5.27-8.09 1.93-8.79L1.93-8.79 1.93-9.32Q5.45-8.96 5.98-9.49L5.98-9.49Q6.68-8.61 14.06-28.48ZM0.88-25.84L1.23-26.19Q6.15-23.91 7.21-22.68L7.21-22.68Q8.79-19.16 5.63-18.46L5.63-18.46Q5.27-18.46 4.92-19.69L4.92-19.69Q3.69-23.38 0.88-25.84L0.88-25.84ZM26.72-25.14L26.72-25.14Q28.65-24.26 30.06-22.85L30.06-22.85Q28.65-21.8 28.65-21.62L28.65-21.62 28.83-8.61Q27.77-7.38 26.02-7.38L26.02-7.38 26.02-10.02 19.51-10.02 19.51-7.21Q18.46-6.15 16.7-5.8L16.7-5.8 17.05-24.96Q19.16-23.73 19.86-23.38L19.86-23.38 25.31-23.38Q25.31-23.38 25.66-23.91L25.66-23.91Q26.54-25.31 26.72-25.14ZM26.02-11.07L26.02-22.32 20.57-22.32Q19.34-22.5 19.51-20.92L19.51-20.92 19.51-11.07 26.02-11.07ZM65.04-37.27L65.04-37.27Q69.61-35.68 69.61-35.51L69.61-35.51Q69.61-35.33 68.73-34.45L68.73-34.45Q68.2-33.93 68.2-33.93L68.2-33.93 68.03-29.71 81.39-29.71 83.67-32.34 87.54-29 87.54-28.65 67.85-28.65 67.68-22.85 79.45-22.85Q79.63-22.85 80.33-23.91L80.33-23.91Q81.04-24.79 81.04-24.79L81.04-24.79Q83.32-23.2 84.73-21.8L84.73-21.8Q84.73-21.8 83.85-21.09L83.85-21.09Q82.97-20.39 82.97-20.21L82.97-20.21Q82.97-14.24 83.14-6.33L83.14-6.33Q83.14 1.76 82.97 2.29L82.97 2.29Q82.27 4.22 78.22 5.45L78.22 5.45Q78.22 5.45 78.05 5.27L78.05 5.27Q77.87 2.81 73.13 1.23L73.13 1.23 73.13 0.7Q79.8 1.58 80.16 1.05L80.16 1.05Q80.68-2.99 80.16-21.8L80.16-21.8 72.07-21.8Q74.88-19.69 74.71-19.51L74.71-19.51Q74.71-19.34 74.18-19.16L74.18-19.16Q73.48-18.98 72.77-18.28L72.77-18.28Q71.72-16.88 69.26-14.24L69.26-14.24Q68.73-13.54 68.38-13.18L68.38-13.18 73.13-13.18 74.88-15.29 78.4-12.48 78.22-12.13 67.68-12.13 67.68-6.86 73.3-6.86 75.41-8.96 78.4-5.98 78.22-5.8 67.68-5.8 67.68 3.16Q66.97 3.87 65.04 4.22L65.04 4.22 65.04-5.8 58.01-5.8 56.25-5.45 55.2-6.86 65.04-6.86 65.04-12.13 58.18-12.13 56.43-11.95 55.55-13.18 62.4-13.18Q62.23-13.36 62.05-14.24L62.05-14.24Q61.7-17.93 58.71-20.21L58.71-20.21 59.24-20.74Q64.51-17.75 65.04-15.64L65.04-15.64Q65.04-14.41 63.81-13.18L63.81-13.18 67.32-13.18Q69.79-17.4 71.54-21.8L71.54-21.8 55.37-21.8Q53.26-22.15 53.61-19.86L53.61-19.86Q53.61-18.81 53.26 4.04L53.26 4.04Q51.5 5.1 50.1 5.27L50.1 5.27Q50.8-8.44 50.8-24.43L50.8-24.43 54.14-22.85 64.69-22.85 65.04-28.65 48.52-28.65 46.76-28.3 45.7-29.71 65.04-29.71Q65.21-35.51 65.04-37.27ZM98.26-37.27L98.26-37.27Q101.43-36.21 102.3-35.16L102.3-35.16Q102.13-34.98 101.95-34.98L101.95-34.98Q100.55-34.45 98.96-31.64L98.96-31.64 109.16-31.64 111.27-33.57 114.43-30.94 114.26-30.59 105.64-30.59Q105.12-27.25 104.94-24.96L104.94-24.96 109.86-24.96 111.45-27.07 114.79-24.43 114.61-23.91 104.77-23.91 104.06-21.8Q110.21-20.39 112.15-18.63L112.15-18.63Q114.26-16.17 111.62-14.94L111.62-14.94Q111.27-14.94 110.39-16L110.39-16Q107.75-19.34 103.89-21.09L103.89-21.09Q101.43-14.41 91.05-11.43L91.05-11.43 90.88-12.13Q96.33-14.41 99.14-17.75L99.14-17.75Q101.07-20.04 101.95-23.91L101.95-23.91 94.39-23.91 92.11-23.2 91.23-24.96 102.13-24.96Q102.13-25.49 102.3-26.19L102.3-26.19Q102.66-28.3 102.66-30.59L102.66-30.59 98.44-30.59Q96.68-27.77 94.39-25.31L94.39-25.31 93.69-25.84Q96.86-30.41 98.26-37.27ZM126.74-33.75L126.74-33.75Q127.97-33.4 130.43-31.29L130.43-31.29Q130.43-31.29 129.73-30.76L129.73-30.76Q128.67-29.88 128.67-29.71L128.67-29.71 129.02-17.23Q128.14-16.17 126.21-15.82L126.21-15.82 126.21-18.63 118.48-18.63 118.48-16.7Q117.42-15.64 115.84-15.29L115.84-15.29 116.19-33.4Q116.89-33.22 119.18-31.99L119.18-31.99 125.33-31.99Q126.56-33.57 126.74-33.75ZM126.21-30.94L120.76-30.94Q117.95-31.46 118.48-28.3L118.48-28.3 118.48-19.69 126.21-19.69 126.21-30.94ZM100.9-14.94L100.9-14.94Q101.07-15.12 104.41-13.18L104.41-13.18 120.23-13.18Q121.82-14.94 121.99-14.94L121.99-14.94Q122.52-14.77 125.33-12.3L125.33-12.3Q125.16-11.95 123.57-10.9L123.57-10.9Q123.93-0.53 124.1 4.04L124.1 4.04Q122.87 5.27 121.11 5.45L121.11 5.45 121.11 1.58 103.54 1.58 103.54 3.69Q102.48 4.92 100.37 5.45L100.37 5.45Q100.55-1.93 100.9-14.94ZM121.11-6.5L121.11-12.13 106.7-12.13Q103.01-12.48 103.54-10.37L103.54-10.37 103.54-6.5 121.11-6.5ZM121.11 0.53L121.11-5.45 103.54-5.45 103.54 0.53 121.11 0.53ZM144.14-36.56L144.14-36.56Q148.36-34.45 148.36-34.28L148.36-34.28Q148.36-34.28 147.66-33.93L147.66-33.93Q146.78-33.57 146.78-33.4L146.78-33.4Q145.9-31.46 145.02-28.83L145.02-28.83Q144.84-28.48 144.84-28.3L144.84-28.3 149.94-28.3 151.88-30.41 155.04-27.6 155.04-27.25 144.32-27.25Q142.73-24.08 140.8-21.09L140.8-21.09 148.54-21.09 150.29-23.2 153.28-20.21 153.11-20.04 146.07-20.04 146.07-13.54 149.59-13.54 151.52-15.82 154.51-12.83 154.34-12.48 146.07-12.48 146.07-0.88 153.46-4.57 153.63-4.04Q145.9 1.76 144.32 3.87L144.32 3.87Q144.14 4.04 144.14 4.04L144.14 4.04Q142.38 2.46 141.86 1.58L141.86 1.58Q141.86 1.58 142.03 1.23L142.03 1.23Q143.44-0.18 143.44-1.76L143.44-1.76 143.44-12.48 139.75-12.48 137.64-11.78 136.23-13.54 143.44-13.54 143.44-20.04 140.27-20.04Q138.34-17.23 136.41-14.94L136.41-14.94 136.05-15.47Q141.5-23.38 144.14-36.56ZM162.07-36.39L162.07-36.39Q164.18-35.51 166.29-34.45L166.29-34.45Q166.29-34.45 165.76-34.28L165.76-34.28Q164.53-33.57 164.18-33.05L164.18-33.05Q164-32.87 163.83-32.34L163.83-32.34Q163.65-31.99 162.42-29.53L162.42-29.53 171.39-29.53Q171.39-29.53 171.74-29.88L171.74-29.88Q173.14-31.46 173.32-31.46L173.32-31.46Q173.32-31.46 173.67-31.11L173.67-31.11Q176.66-28.3 176.66-28.13L176.66-28.13Q174.38-27.07 174.2-26.89L174.2-26.89Q168.05-18.28 161.02-12.3L161.02-12.3 171.04-12.3Q171.91-13.54 172.79-14.24L172.79-14.24Q172.79-14.24 173.85-13.54L173.85-13.54Q176.31-11.78 176.31-11.6L176.31-11.6Q176.31-11.6 175.61-10.9L175.61-10.9Q174.73-10.2 174.73-10.02L174.73-10.02 174.9 3.69Q172.79 4.75 172.09 4.75L172.09 4.75 172.09 1.23 160.14 1.23 160.14 3.87Q159.61 4.39 157.15 5.1L157.15 5.1 157.68-10.02Q152.4-6.68 149.06-5.45L149.06-5.45 148.71-5.8Q153.98-8.79 157.68-11.95L157.68-11.95 157.68-13.89 159.26-13.36Q166.46-19.86 171.56-28.48L171.56-28.48 161.89-28.48Q161.02-27.07 159.43-24.61L159.43-24.61Q163.13-22.85 164.18-21.09L164.18-21.09Q164.18-18.46 162.25-18.28L162.25-18.28Q161.89-18.46 161.54-19.69L161.54-19.69Q160.49-22.85 158.91-23.73L158.91-23.73Q155.04-18.98 153.28-17.23L153.28-17.23 152.75-17.58Q159.26-26.54 162.07-36.39ZM171.91 0.18L171.91-11.43 161.72-11.43Q159.96-11.6 160.14-9.49L160.14-9.49 160.14 0.18 171.91 0.18Z" transform="translate(-0.8799999952316284, 37.27000045776367)"></path></g> <!----> <!----> <!----> <!----> <!----> <!----> <!----></g></g> <g data-gra="path-slogan" fill-rule="" class="tp-slogan iconsvg-slogansvg" fill="#333" transform="translate(5,48.720001220703125)"><rect x="0" height="1" y="3.9750003814697266" width="32.98999786376953"></rect> <rect height="1" y="3.9750003814697266" width="32.98999786376953" x="132.79000091552734"></rect> <g transform="translate(35.98999786376953,0)"><g transform="scale(1)"><path d="M2.06-5.06L6.56-5.06L6.56-8.58L7.73-8.58L7.73 0L6.56 0L6.56-3.98L2.06-3.98L2.06 0L0.89 0L0.89-8.58L2.06-8.58L2.06-5.06ZM10.83-1.03L15.98-1.03L15.98 0L9.66 0L9.66-8.58L15.89-8.58L15.89-7.59L10.83-7.59L10.83-4.92L15.52-4.92L15.52-3.89L10.83-3.89L10.83-1.03ZM18.89-8.58L23.20-1.64L23.20-8.58L24.33-8.58L24.33 0L23.02 0L18.66-6.94L18.61-6.94L18.61 0L17.48 0L17.48-8.58L18.89-8.58ZM31.78 0L30.94-2.48L27.47-2.48L26.58 0L25.41 0L28.64-8.58L29.95-8.58L33.05 0L31.78 0ZM29.20-7.31L27.84-3.52L30.52-3.52L29.25-7.31L29.20-7.31ZM35.48-8.58L39.80-1.64L39.80-8.58L40.92-8.58L40.92 0L39.61 0L35.25-6.94L35.20-6.94L35.20 0L34.08 0L34.08-8.58L35.48-8.58ZM46.88-1.03L52.17-1.03L52.17 0L45.42 0L45.42-0.94L50.67-7.59L45.80-7.59L45.80-8.58L52.17-8.58L52.17-7.59L46.88-1.03ZM54.47-5.06L58.97-5.06L58.97-8.58L60.14-8.58L60.14 0L58.97 0L58.97-3.98L54.47-3.98L54.47 0L53.30 0L53.30-8.58L54.47-8.58L54.47-5.06ZM62.11-8.58L63.28-8.58L63.28 0L62.11 0L62.11-8.58ZM73.50-8.58L73.50 0L72.38 0L72.38-5.06Q72.38-5.77 72.38-7.22L72.38-7.22L69.94 0L68.77 0L66.38-7.22L66.33-7.22Q66.33-6.70 66.38-5.67L66.38-5.67Q66.38-5.16 66.38-5.06L66.38-5.06L66.38 0L65.20 0L65.20-8.58L66.89-8.58L69.38-1.31L71.81-8.58L73.50-8.58ZM75.38-8.58L76.55-8.58L76.55 0L75.38 0L75.38-8.58ZM79.92-8.58L84.23-1.64L84.23-8.58L85.36-8.58L85.36 0L84.05 0L79.69-6.94L79.64-6.94L79.64 0L78.52 0L78.52-8.58L79.92-8.58ZM93.56-3.61L90.94-3.61L90.94-4.59L94.69-4.59L94.69 0L93.94 0L93.66-1.08Q92.67 0.09 90.84 0.14L90.84 0.14Q89.11 0.14 88.17-0.75L88.17-0.75Q86.77-2.06 86.81-4.36L86.81-4.36Q87.14-8.63 90.89-8.81L90.89-8.81Q94.08-8.63 94.55-6L94.55-6L93.42-6Q92.95-7.78 90.84-7.83L90.84-7.83Q88.17-7.64 88.03-4.31L88.03-4.31Q88.03-0.75 90.89-0.75L90.89-0.75Q91.92-0.75 92.67-1.31L92.67-1.31Q93.61-2.06 93.56-3.61L93.56-3.61Z" transform="translate(-0.890625, 8.8125)"></path></g></g></g></g></g><defs v-gra="od"></defs></svg>